<?xml version="1.0" encoding="UTF-8"?>
<svg xmlns="http://www.w3.org/2000/svg" xmlns:xlink="http://www.w3.org/1999/xlink" width="25px" height="18px" viewBox="0 0 25 18" version="1.1">
<g id="surface1">
<path style=" stroke:none;fill-rule:nonzero; fill:#c6d1e1;fill-opacity:1;" d="M 2.335938 0.0234375 C 1.335938 0.148438 0.472656 0.863281 0.144531 1.835938 C 0.0078125 2.246094 0.015625 1.636719 0.0078125 8.878906 C 0.00390625 13.347656 0.0078125 15.460938 0.0234375 15.589844 C 0.0703125 16.058594 0.25 16.511719 0.523438 16.890625 C 0.652344 17.070312 0.921875 17.339844 1.089844 17.460938 C 1.371094 17.664062 1.742188 17.835938 2.085938 17.917969 C 2.253906 17.957031 2.316406 17.957031 6.503906 17.972656 C 8.839844 17.984375 13.441406 17.988281 16.726562 17.984375 L 22.703125 17.980469 L 22.871094 17.9375 C 23.140625 17.871094 23.273438 17.820312 23.523438 17.695312 C 24.324219 17.300781 24.859375 16.527344 24.976562 15.613281 C 24.992188 15.496094 25 13.488281 25 8.832031 C 25 3.371094 24.992188 2.195312 24.972656 2.105469 C 24.890625 1.765625 24.757812 1.460938 24.578125 1.1875 C 24.4375 0.976562 24.179688 0.703125 23.96875 0.539062 C 23.796875 0.40625 23.382812 0.191406 23.1875 0.128906 C 23.128906 0.109375 23 0.078125 22.90625 0.0546875 L 22.726562 0.0117188 L 12.597656 0.0078125 C 6.8125 0.0078125 2.414062 0.0117188 2.335938 0.0234375 Z M 17.65625 6.253906 C 14.378906 9.554688 12.828125 11.105469 12.765625 11.144531 C 12.628906 11.222656 12.46875 11.222656 12.339844 11.144531 C 12.28125 11.113281 10.488281 9.320312 7.445312 6.253906 L 2.636719 1.417969 L 22.453125 1.417969 Z M 23.652344 8.863281 L 23.640625 15.601562 L 23.601562 15.753906 C 23.484375 16.152344 23.300781 16.378906 22.960938 16.523438 L 22.820312 16.582031 L 16.078125 9.753906 L 19.859375 5.9375 C 21.9375 3.84375 23.648438 2.125 23.652344 2.125 C 23.65625 2.125 23.65625 5.15625 23.652344 8.863281 Z M 5.234375 5.933594 L 8.953125 9.683594 L 5.542969 13.125 L 2.132812 16.5625 L 2.007812 16.507812 C 1.769531 16.390625 1.601562 16.164062 1.53125 15.855469 C 1.5 15.726562 1.492188 15.265625 1.492188 8.949219 C 1.484375 5.230469 1.492188 2.183594 1.5 2.183594 C 1.507812 2.183594 3.1875 3.871094 5.234375 5.933594 Z M 11.101562 11.839844 C 11.984375 12.734375 12.3125 13.058594 12.371094 13.082031 C 12.46875 13.121094 12.632812 13.121094 12.726562 13.082031 C 12.78125 13.058594 13.132812 12.71875 13.964844 11.878906 L 15.125 10.707031 L 18.0625 13.667969 C 19.675781 15.292969 20.996094 16.628906 20.996094 16.632812 C 20.996094 16.640625 17.160156 16.644531 12.46875 16.644531 C 7.78125 16.644531 3.945312 16.640625 3.945312 16.632812 C 3.945312 16.621094 9.890625 10.628906 9.902344 10.628906 C 9.90625 10.628906 10.449219 11.171875 11.101562 11.839844 Z M 11.101562 11.839844 "/>
</g>
</svg>
