<?xml version="1.0" encoding="UTF-8"?>
<svg xmlns="http://www.w3.org/2000/svg" xmlns:xlink="http://www.w3.org/1999/xlink" width="25px" height="25px" viewBox="0 0 25 25" version="1.1">
<g id="surface1">
<path style=" stroke:none;fill-rule:nonzero;fill:#c6d1e1;fill-opacity:1;" d="M 14.820312 0.03125 C 14.367188 0.160156 14.113281 0.628906 14.25 1.078125 C 14.324219 1.316406 14.511719 1.519531 14.742188 1.605469 C 14.820312 1.636719 14.925781 1.648438 15.152344 1.664062 C 15.570312 1.6875 15.964844 1.730469 16.292969 1.789062 C 18.730469 2.214844 20.851562 3.671875 22.136719 5.796875 C 22.84375 6.96875 23.265625 8.367188 23.332031 9.746094 C 23.335938 9.890625 23.355469 10.0625 23.371094 10.128906 C 23.429688 10.363281 23.585938 10.546875 23.832031 10.664062 C 23.96875 10.730469 23.988281 10.734375 24.171875 10.734375 C 24.355469 10.734375 24.378906 10.726562 24.511719 10.667969 C 24.75 10.554688 24.925781 10.335938 24.988281 10.082031 C 25.019531 9.960938 25.003906 9.582031 24.957031 9.132812 C 24.738281 7.019531 23.914062 5.113281 22.527344 3.511719 C 22.195312 3.125 21.609375 2.5625 21.199219 2.234375 C 19.652344 1 17.789062 0.242188 15.824219 0.0507812 C 15.34375 0.00390625 14.949219 -0.00390625 14.820312 0.03125 Z M 14.820312 0.03125 "/>
<path style=" stroke:none;fill-rule:nonzero;fill:#c6d1e1;fill-opacity:1;" d="M 13.980469 3.070312 C 13.773438 3.109375 13.566406 3.246094 13.449219 3.417969 C 13.199219 3.789062 13.292969 4.304688 13.65625 4.554688 C 13.816406 4.664062 13.917969 4.691406 14.300781 4.71875 C 15.25 4.792969 16.058594 5.015625 16.839844 5.421875 C 17.421875 5.722656 17.863281 6.042969 18.339844 6.503906 C 19.5 7.628906 20.167969 9.085938 20.269531 10.722656 C 20.285156 10.996094 20.332031 11.148438 20.433594 11.292969 C 20.734375 11.714844 21.347656 11.753906 21.707031 11.382812 C 21.910156 11.167969 21.957031 10.988281 21.925781 10.554688 C 21.789062 8.5625 20.976562 6.773438 19.578125 5.386719 C 18.1875 4.007812 16.414062 3.207031 14.417969 3.066406 C 14.109375 3.046875 14.097656 3.046875 13.980469 3.070312 Z M 13.980469 3.070312 "/>
<path style=" stroke:none;fill-rule:nonzero;fill:#c6d1e1;fill-opacity:1;" d="M 4.453125 3.265625 C 4.042969 3.316406 3.640625 3.476562 3.210938 3.765625 C 2.0625 4.539062 1.132812 5.863281 0.519531 7.613281 C 0.371094 8.03125 0.183594 8.6875 0.109375 9.054688 C -0.171875 10.414062 0.101562 12.03125 0.914062 13.84375 C 1.714844 15.621094 3.164062 17.765625 4.796875 19.582031 C 5.378906 20.234375 6.816406 21.417969 8.082031 22.296875 C 9.460938 23.25 10.800781 23.96875 12.042969 24.421875 C 12.328125 24.53125 12.457031 24.570312 12.847656 24.6875 C 12.980469 24.726562 13.394531 24.824219 13.632812 24.871094 C 14.109375 24.960938 14.402344 24.988281 14.929688 24.988281 C 15.53125 24.992188 15.777344 24.960938 16.386719 24.804688 C 17.917969 24.421875 19.171875 23.84375 20.167969 23.054688 C 20.4375 22.84375 20.890625 22.394531 21.085938 22.148438 C 21.394531 21.757812 21.652344 21.320312 21.746094 21.007812 C 21.84375 20.6875 21.886719 20.234375 21.847656 19.851562 C 21.730469 18.601562 21.054688 17.5625 19.902344 16.84375 C 19.433594 16.554688 18.5625 16.15625 18.023438 15.988281 C 17.140625 15.714844 16.316406 15.6875 15.648438 15.910156 C 15.089844 16.09375 14.675781 16.421875 14.265625 16.992188 C 13.890625 17.523438 13.558594 17.835938 13.167969 18.03125 C 12.910156 18.160156 12.753906 18.195312 12.433594 18.191406 C 12.195312 18.1875 12.136719 18.183594 11.984375 18.136719 C 11.738281 18.0625 11.433594 17.914062 11.179688 17.742188 C 10.152344 17.0625 7.738281 14.617188 7.195312 13.71875 C 7.070312 13.507812 6.953125 13.238281 6.894531 13.035156 C 6.828125 12.792969 6.820312 12.433594 6.878906 12.226562 C 7.019531 11.707031 7.433594 11.214844 8.125 10.742188 C 9.0625 10.105469 9.457031 9.050781 9.234375 7.765625 C 9.117188 7.09375 8.808594 6.277344 8.375 5.488281 C 7.886719 4.605469 7.273438 3.992188 6.507812 3.625 C 6.15625 3.457031 5.867188 3.363281 5.476562 3.289062 C 5.273438 3.253906 4.660156 3.238281 4.453125 3.265625 Z M 5.375 4.617188 C 6.089844 4.773438 6.675781 5.222656 7.109375 5.957031 C 7.496094 6.605469 7.824219 7.421875 7.921875 7.980469 C 7.972656 8.261719 7.96875 8.671875 7.914062 8.878906 C 7.824219 9.222656 7.640625 9.46875 7.320312 9.6875 C 5.921875 10.640625 5.296875 11.886719 5.566406 13.195312 C 5.652344 13.621094 5.882812 14.140625 6.167969 14.570312 C 6.789062 15.503906 8.707031 17.484375 9.980469 18.507812 C 10.640625 19.039062 11.253906 19.347656 11.898438 19.476562 C 12.207031 19.539062 12.714844 19.539062 13.007812 19.476562 C 13.902344 19.289062 14.714844 18.6875 15.367188 17.738281 C 15.589844 17.414062 15.835938 17.226562 16.164062 17.136719 C 16.34375 17.085938 16.808594 17.078125 17.050781 17.117188 C 17.597656 17.210938 18.246094 17.445312 18.890625 17.796875 C 19.335938 18.039062 19.578125 18.210938 19.847656 18.492188 C 20.261719 18.921875 20.476562 19.398438 20.523438 20.007812 C 20.539062 20.222656 20.503906 20.554688 20.453125 20.683594 C 20.289062 21.09375 19.757812 21.707031 19.210938 22.117188 C 18.386719 22.734375 17.371094 23.1875 16.085938 23.515625 C 15.546875 23.652344 15.324219 23.679688 14.769531 23.664062 C 14.308594 23.65625 14.136719 23.632812 13.699219 23.542969 C 11.875 23.164062 9.605469 21.914062 7.195312 19.960938 C 6.359375 19.285156 5.976562 18.929688 5.5 18.375 C 3.386719 15.921875 1.941406 13.429688 1.492188 11.449219 C 1.378906 10.945312 1.347656 10.679688 1.347656 10.167969 C 1.34375 9.652344 1.355469 9.554688 1.464844 9.101562 C 1.917969 7.207031 2.78125 5.691406 3.835938 4.929688 C 4.078125 4.757812 4.371094 4.617188 4.535156 4.59375 C 4.714844 4.566406 5.203125 4.582031 5.375 4.617188 Z M 5.375 4.617188 "/>
<path style=" stroke:none;fill-rule:nonzero;fill:#c6d1e1;fill-opacity:1;" d="M 12.871094 6.230469 C 12.636719 6.289062 12.445312 6.453125 12.332031 6.691406 C 12.28125 6.796875 12.277344 6.828125 12.277344 7.03125 C 12.277344 7.238281 12.28125 7.265625 12.332031 7.367188 C 12.417969 7.539062 12.5625 7.683594 12.730469 7.765625 C 12.859375 7.832031 12.898438 7.839844 13.171875 7.863281 C 13.753906 7.917969 14.226562 8.046875 14.691406 8.269531 C 15.15625 8.492188 15.457031 8.703125 15.820312 9.054688 C 16.183594 9.40625 16.429688 9.734375 16.644531 10.15625 C 16.921875 10.699219 17.027344 11.097656 17.113281 11.894531 C 17.152344 12.230469 17.316406 12.46875 17.601562 12.605469 C 17.835938 12.710938 18.140625 12.699219 18.367188 12.566406 C 18.480469 12.5 18.640625 12.324219 18.699219 12.199219 C 18.777344 12.035156 18.789062 11.910156 18.765625 11.628906 C 18.601562 9.660156 17.503906 7.941406 15.78125 6.957031 C 15.066406 6.546875 14.222656 6.289062 13.367188 6.210938 C 13.074219 6.1875 13.03125 6.1875 12.871094 6.230469 Z M 12.871094 6.230469 "/>
</g>
</svg>
