<?xml version="1.0" encoding="UTF-8"?>
<svg xmlns="http://www.w3.org/2000/svg" xmlns:xlink="http://www.w3.org/1999/xlink" width="20px" height="26px" viewBox="0 0 20 25" version="1.1">
<g id="surface1">
<path style=" stroke:none;fill-rule:nonzero;fill:rgb(0%,0%,0%);fill-opacity:1;" d="M 6.109375 0.0351562 C 6.054688 0.0546875 5.648438 0.273438 5.207031 0.519531 C 4.765625 0.765625 4.191406 1.085938 3.933594 1.230469 C 3.328125 1.5625 3.230469 1.65625 3.167969 1.960938 C 3.121094 2.167969 3.136719 2.203125 3.714844 3.164062 C 4.675781 4.765625 6.652344 7.953125 6.734375 8.046875 C 6.84375 8.160156 7 8.25 7.160156 8.292969 C 7.386719 8.347656 7.394531 8.34375 8.464844 7.75 C 8.992188 7.453125 9.574219 7.125 9.765625 7.023438 C 10.238281 6.761719 10.363281 6.625 10.417969 6.300781 C 10.460938 6.046875 10.441406 6.007812 9.992188 5.28125 C 7.898438 1.90625 6.875 0.273438 6.824219 0.210938 C 6.675781 0.0390625 6.332031 -0.046875 6.109375 0.0351562 Z M 6.109375 0.0351562 "/>
<path style=" stroke:none;fill-rule:nonzero;fill:rgb(0%,0%,0%);fill-opacity:1;" d="M 2.394531 2.65625 C 1.332031 2.953125 0.605469 3.703125 0.25 4.882812 C -0.324219 6.769531 0.117188 9.742188 1.453125 13.046875 C 2.808594 16.386719 4.859375 19.558594 7.09375 21.773438 C 9.007812 23.671875 10.832031 24.71875 12.660156 24.960938 C 12.914062 25 13.679688 25 13.914062 24.964844 C 14.351562 24.898438 14.742188 24.796875 15.125 24.648438 C 15.300781 24.582031 15.480469 24.5 15.503906 24.484375 C 15.515625 24.476562 13.757812 21.492188 13.550781 21.171875 C 13.339844 20.84375 12.925781 20.1875 12.285156 19.160156 C 11.945312 18.617188 12.003906 18.65625 11.699219 18.734375 C 11.441406 18.792969 10.90625 18.796875 10.605469 18.742188 C 9.941406 18.625 9.175781 18.25 8.496094 17.71875 C 8.21875 17.503906 7.699219 17.011719 7.441406 16.71875 C 7.042969 16.273438 6.644531 15.730469 6.308594 15.1875 C 6.109375 14.851562 6.007812 14.65625 5.871094 14.328125 C 5.535156 13.492188 5.328125 12.726562 5.226562 11.945312 C 5.175781 11.554688 5.179688 10.890625 5.234375 10.53125 C 5.339844 9.84375 5.59375 9.269531 5.992188 8.796875 C 6.050781 8.726562 6.09375 8.664062 6.089844 8.65625 C 6.085938 8.648438 5.980469 8.46875 5.851562 8.257812 C 5.511719 7.695312 5.019531 6.828125 4.214844 5.371094 C 3.226562 3.585938 2.65625 2.597656 2.617188 2.601562 C 2.609375 2.601562 2.507812 2.625 2.394531 2.65625 Z M 2.394531 2.65625 "/>
<path style=" stroke:none;fill-rule:nonzero;fill:rgb(0%,0%,0%);fill-opacity:1;" d="M 15.429688 15.847656 C 15.390625 15.863281 14.953125 16.101562 14.457031 16.382812 C 13.960938 16.660156 13.386719 16.976562 13.183594 17.089844 C 12.78125 17.3125 12.644531 17.421875 12.5625 17.578125 C 12.460938 17.785156 12.46875 18 12.578125 18.191406 C 13.984375 20.621094 15.945312 23.90625 16.058594 24.019531 C 16.09375 24.054688 16.179688 24.113281 16.253906 24.148438 C 16.371094 24.203125 16.398438 24.210938 16.574219 24.210938 L 16.765625 24.210938 L 17.085938 24.03125 C 17.261719 23.929688 17.855469 23.601562 18.410156 23.292969 C 18.960938 22.984375 19.4375 22.710938 19.46875 22.679688 C 19.550781 22.605469 19.621094 22.492188 19.664062 22.367188 C 19.710938 22.242188 19.71875 21.976562 19.679688 21.875 C 19.667969 21.835938 19.476562 21.511719 19.261719 21.152344 C 19.042969 20.792969 18.453125 19.808594 17.949219 18.964844 C 16.632812 16.765625 16.234375 16.113281 16.167969 16.03125 C 16.132812 15.984375 16.058594 15.933594 15.976562 15.894531 C 15.859375 15.839844 15.820312 15.828125 15.671875 15.828125 C 15.5625 15.820312 15.472656 15.832031 15.429688 15.847656 Z M 15.429688 15.847656 "/>
</g>
</svg>
