<?xml version="1.0" encoding="UTF-8"?>
<svg xmlns="http://www.w3.org/2000/svg" xmlns:xlink="http://www.w3.org/1999/xlink" width="25px" height="25px" viewBox="0 0 25 24" version="1.1">
<g id="surface1">
<path style=" stroke:none;fill-rule:nonzero;fill:#c6d1e1;fill-opacity:1;" d="M 2.5 0.0273438 C 1.898438 0.113281 1.40625 0.378906 0.992188 0.835938 C 0.632812 1.234375 0.332031 1.78125 0.09375 2.472656 L 0 2.75 L 0.0078125 12.171875 L 0.0078125 21.597656 L 0.0546875 21.777344 C 0.175781 22.289062 0.382812 22.640625 0.769531 22.992188 C 0.871094 23.085938 1.035156 23.214844 1.136719 23.277344 C 1.539062 23.542969 2.171875 23.792969 2.796875 23.9375 L 3.046875 23.996094 L 12.78125 23.992188 L 22.507812 23.988281 L 22.703125 23.945312 C 23.867188 23.6875 24.601562 22.757812 24.960938 21.089844 L 25 20.902344 L 25 2.925781 L 24.953125 2.730469 C 24.578125 1.246094 23.882812 0.367188 22.867188 0.09375 C 22.496094 -0.00390625 23.0625 0 12.476562 0 C 4.664062 0.00390625 2.632812 0.0078125 2.5 0.0273438 Z M 19.796875 2.617188 C 19.871094 2.660156 19.914062 2.703125 19.9375 2.785156 C 19.953125 2.828125 19.960938 3.179688 19.960938 3.976562 C 19.960938 5.078125 19.960938 5.109375 19.921875 5.1875 C 19.890625 5.246094 19.859375 5.277344 19.796875 5.304688 C 19.71875 5.34375 19.683594 5.34375 18.851562 5.34375 L 17.984375 5.34375 L 17.867188 5.40625 C 17.679688 5.5 17.523438 5.664062 17.425781 5.851562 C 17.292969 6.113281 17.277344 6.234375 17.273438 6.933594 C 17.273438 7.519531 17.277344 7.539062 17.320312 7.613281 C 17.34375 7.664062 17.390625 7.707031 17.4375 7.726562 C 17.507812 7.761719 17.578125 7.761719 18.734375 7.769531 L 19.960938 7.773438 L 19.960938 10.011719 L 17.546875 10.011719 L 17.460938 10.054688 C 17.394531 10.085938 17.359375 10.121094 17.324219 10.191406 L 17.273438 10.285156 L 17.265625 21.230469 L 15.421875 21.230469 C 13.671875 21.230469 13.578125 21.226562 13.503906 21.195312 C 13.453125 21.171875 13.40625 21.132812 13.375 21.085938 L 13.328125 21.011719 L 13.320312 10.011719 L 10.976562 10.011719 L 10.976562 9.027344 C 10.976562 8.375 10.984375 8.019531 11 7.984375 C 11.023438 7.917969 11.085938 7.855469 11.164062 7.8125 C 11.210938 7.785156 11.335938 7.78125 12.148438 7.773438 C 12.882812 7.765625 13.085938 7.757812 13.125 7.738281 C 13.195312 7.699219 13.265625 7.636719 13.289062 7.585938 C 13.300781 7.554688 13.3125 7.265625 13.320312 6.804688 C 13.328125 6.285156 13.34375 6.003906 13.367188 5.84375 C 13.476562 5.09375 13.6875 4.5 14.015625 4.019531 C 14.195312 3.757812 14.570312 3.398438 14.84375 3.226562 C 15.414062 2.859375 16.101562 2.65625 16.972656 2.597656 C 17.09375 2.589844 17.769531 2.585938 18.46875 2.585938 C 19.605469 2.585938 19.742188 2.589844 19.796875 2.617188 Z M 19.796875 2.617188 "/>
</g>
</svg>
